<?xml version="1.0" ?>
<!DOCTYPE svg  PUBLIC '-//W3C//DTD SVG 1.1//EN'  'http://www.w3.org/Graphics/SVG/1.1/DTD/svg11.dtd'>
<!-- Uploaded to: SVG Repo, www.svgrepo.com, Generator: SVG Repo Mixer Tools -->
<svg width="800px" height="800px" viewBox="0 0 32 32" id="_x3C_Layer_x3E_" version="1.1" xml:space="preserve" xmlns="http://www.w3.org/2000/svg" xmlns:xlink="http://www.w3.org/1999/xlink">
<style type="text/css">
<![CDATA[
	.st0{fill:#E3F2FD;}
	.st1{fill:#80D8FF;}
	.st2{fill:#1AD2A4;}
	.st3{fill:#ECEFF1;}
	.st4{fill:#55FB9B;}
	.st5{fill:#BBDEFB;}
	.st6{fill:#C1AEE1;}
	.st7{fill:#FF5252;}
	.st8{fill:#FF8A80;}
	.st9{fill:#FFB74D;}
	.st10{fill:#FFF176;}
	.st11{fill:#FFFFFF;}
	.st12{fill:#65C7EA;}
	.st13{fill:#CFD8DC;}
	.st14{fill:#37474F;}
	.st15{fill:#78909C;}
	.st16{fill:#42A5F5;}
	.st17{fill:#455A64;}
]]>
</style>
<g id="Tron_x2C__crypto_1_">
<g id="XMLID_71_">
<g id="XMLID_1484_">
<polygon class="st11" id="XMLID_61_" points="2.5,1.5 13.5,30.5 29.5,10.5 24.2,5.3    "/>
</g>
<g id="XMLID_2520_">
<polygon class="st11" id="XMLID_65_" points="16,12.5 13.5,30.5 29.5,10.5    "/>
</g>
<g id="XMLID_2671_">
<polygon class="st11" id="XMLID_66_" points="2.5,1.5 16,12.5 24.2,5.3    "/>
</g>
</g>
<g id="XMLID_80_">
<g id="XMLID_4521_">
<path class="st7" d="M16,13c-0.24,0-0.46-0.18-0.49-0.43c-0.04-0.27,0.15-0.53,0.42-0.57l13.5-2     c0.27-0.04,0.53,0.15,0.57,0.42c0.04,0.27-0.15,0.53-0.42,0.57l-13.5,2C16.05,13,16.02,13,16,13z" id="XMLID_707_"/>
</g>
<g id="XMLID_4522_">
<path class="st7" d="M16,13c-0.11,0-0.22-0.04-0.32-0.11l-13.5-11C1.97,1.71,1.94,1.4,2.11,1.18     c0.17-0.21,0.49-0.25,0.7-0.07l13.5,11c0.21,0.17,0.25,0.49,0.07,0.7C16.29,12.94,16.15,13,16,13z" id="XMLID_706_"/>
</g>
<g id="XMLID_4520_">
<path class="st7" d="M13.5,31c-0.02,0-0.05,0-0.07,0c-0.27-0.04-0.46-0.29-0.43-0.56l2.5-18     c0.02-0.12,0.08-0.23,0.17-0.31l8.2-7.2c0.21-0.18,0.52-0.16,0.71,0.05c0.18,0.21,0.16,0.52-0.05,0.71l-8.06,7.08L14,30.57     C13.96,30.82,13.75,31,13.5,31z" id="XMLID_705_"/>
</g>
<g id="XMLID_4518_">
<path class="st7" d="M13.5,31c-0.03,0-0.05,0-0.08-0.01c-0.18-0.03-0.33-0.15-0.39-0.32l-11-29     C1.97,1.51,2,1.32,2.11,1.18c0.11-0.14,0.3-0.2,0.47-0.17l21.7,3.8c0.1,0.02,0.19,0.06,0.26,0.14l5.3,5.2     c0.18,0.18,0.2,0.47,0.04,0.67l-16,20C13.79,30.93,13.65,31,13.5,31z M3.28,2.14L13.66,29.5l15.17-18.96l-4.87-4.77L3.28,2.14z" id="XMLID_702_"/>
</g>
</g>
</g>
</svg>